PathFileType	4	(X/Y/Z)	c:/Users/goper/Files/vsCode/490R/osim_files/A03/A03_Slow_06.trc
DataRate	CameraRate	NumFrames	NumMarkers	Units                	OrigDataRate	OrigDataStartFrame	OrigNumFrames
250.00	250.00	8	36	mm	250.0	1491	2981
                Frame#	Time	LPSIS			LASIS			LTH1			LTH2			LTH3			LTH4			LLFE			LMFE			LSH1			LSH2			LSH3			LSH4			LLMAL			LMMAL			LCAL			LMTP5			LTOE			LMTP1			RPSIS			RASIS			RTH1			RTH2			RTH3			RTH4			RLFE			RMFE			RSH1			RSH2			RSH3			RSH4			RLMAL			RMMAL			RCAL			RMTP1			RTOE			RMTP5		
		X1	Y1	Z1	X2	Y2	Z2	X3	Y3	Z3	X4	Y4	Z4	X5	Y5	Z5	X6	Y6	Z6	X7	Y7	Z7	X8	Y8	Z8	X9	Y9	Z9	X10	Y10	Z10	X11	Y11	Z11	X12	Y12	Z12	X13	Y13	Z13	X14	Y14	Z14	X15	Y15	Z15	X16	Y16	Z16	X17	Y17	Z17	X18	Y18	Z18	X19	Y19	Z19	X20	Y20	Z20	X21	Y21	Z21	X22	Y22	Z22	X23	Y23	Z23	X24	Y24	Z24	X25	Y25	Z25	X26	Y26	Z26	X27	Y27	Z27	X28	Y28	Z28	X29	Y29	Z29	X30	Y30	Z30	X31	Y31	Z31	X32	Y32	Z32	X33	Y33	Z33	X34	Y34	Z34	X35	Y35	Z35	X36	Y36	Z36

1491	5.96000	104.69659	1057.52466	209.97110	-133.93800	986.03278	340.62891	-227.01526	652.02899	386.14716	-253.84081	619.19354	380.64389	-273.78931	685.63367	363.70181	-293.68054	646.18665	359.62988	-252.53149	569.94928	368.46472	-284.78003	574.30676	215.46249	-245.72466	475.55466	365.83426	-264.90964	431.69388	365.52924	-305.58411	493.65665	364.82974	-314.71033	447.07440	360.41879	-390.68896	128.48346	336.85883	-406.24072	140.12633	240.00267	-336.08463	89.86180	278.80331	-549.92273	131.29930	360.44315	-569.99127	170.75470	293.72452	-553.22552	141.64348	246.03732	101.36315	1069.76038	127.74649	-140.94711	969.94446	41.99278	-16.04806	606.87140	8.54240	-16.56662	562.16852	17.21310	-77.35809	600.61566	16.70799	-69.77757	557.20862	23.81907	-34.92844	527.60474	33.52647	-73.13978	531.61108	151.68173	30.52326	471.36343	33.94972	42.23556	431.85062	23.39294	-28.17124	449.76105	29.01079	-7.56578	407.94839	20.07266	107.51202	124.34574	74.44844	0.00000	0.00000	0.00000	163.22990	86.78033	135.13548	-51.75658	50.24730	161.49734	-75.04385	73.98086	113.98083	-39.88437	43.07775	46.15567
1492	5.96400	100.92452	1056.89331	210.27174	-137.72285	984.93292	340.80713	-230.19220	650.87427	385.98441	-257.29007	618.04431	380.13416	-277.23935	684.46326	363.27451	-297.14978	645.03162	359.08167	-255.97394	569.14020	367.95554	-287.82465	573.21277	214.79053	-250.41925	474.34088	365.40643	-269.74945	431.00992	365.56442	-309.54648	493.69803	364.56717	-319.40213	446.84067	360.27136	-398.73987	129.04831	337.82217	-413.94684	140.48639	240.87244	-344.36646	89.65314	280.06790	-557.99658	133.73224	360.99490	-577.34723	172.89790	294.50900	-561.11987	143.62347	246.49484	97.58277	1069.20190	128.09053	-144.56470	969.20996	42.13992	-18.60817	606.39673	8.49673	-18.97963	561.67560	17.18200	-79.91212	599.90918	16.69035	-72.90871	556.83411	23.22898	-37.30328	527.07501	33.47352	-75.47797	530.86353	151.63403	28.42517	471.14215	33.89091	40.05855	431.87552	22.91832	-30.20801	449.22162	29.00129	-8.76736	407.16998	19.91003	107.21391	124.45870	74.38285	0.00000	0.00000	0.00000	163.14552	86.89371	135.12395	-51.61036	50.11581	161.47694	-75.20125	73.66658	114.05836	-39.94810	42.96474	46.14689
1493	5.96800	97.09892	1056.25732	210.57610	-141.53650	983.87689	341.00723	-234.04836	649.74170	385.42392	-260.75513	616.83673	379.64523	-280.79938	683.25385	362.83627	-300.61395	643.77545	358.51114	-259.41052	568.34949	367.40897	-290.75793	572.04932	214.12907	-254.66254	473.59653	365.25253	-274.54138	430.39499	365.62436	-313.64349	493.45947	364.20349	-324.02478	446.58875	360.16476	-406.44083	129.56419	338.78973	-421.27432	140.72348	241.77089	-352.32050	89.39719	281.37918	-565.73572	135.93857	361.55148	-584.44287	174.95813	294.90842	-568.54395	145.21751	247.03423	93.78281	1068.61682	128.39383	-148.12532	968.48816	42.24559	-21.25160	605.80292	8.23680	-21.38132	561.19147	17.17345	-82.53100	599.25684	16.61509	-75.29694	556.20844	23.26665	-40.16391	526.57019	33.66095	-77.89687	530.16278	151.57887	26.23376	470.85205	33.83492	38.07109	431.71835	22.80498	-32.24945	448.71628	28.96997	-10.78889	406.81244	19.74379	106.90550	124.57863	74.33710	0.00000	0.00000	0.00000	163.03479	86.99768	135.10054	-51.73473	49.89972	161.54033	-75.34904	73.32172	114.13419	-39.98955	42.82867	46.12017
1494	5.97200	93.19035	1055.56738	210.88559	-145.34750	982.80237	341.20416	-237.59805	648.57953	385.00272	-264.20966	615.63837	379.12497	-284.31372	681.99268	362.41367	-304.10187	642.55151	357.96298	-262.89819	567.57666	366.84659	-293.81189	570.88092	213.44537	-258.86972	472.88098	365.05786	-279.20374	429.76135	365.67526	-317.78558	493.09592	363.81281	-328.59222	446.29282	359.96881	-413.77081	130.01686	339.81873	-428.29916	140.82840	242.65939	-359.95255	88.96461	282.65988	-572.98297	137.88971	362.13351	-591.20715	176.72948	295.34433	-575.46478	146.70613	247.55753	89.92139	1068.02283	128.72861	-151.01978	967.98975	41.88449	-23.87777	605.30902	8.21540	-23.80663	560.71851	17.11871	-85.77174	598.48126	16.00910	-77.69499	555.58667	23.20817	-42.38361	525.96692	33.61544	-80.29200	529.40668	151.55392	24.01352	470.59564	33.76992	35.69804	431.22412	22.11800	-34.27861	448.20813	28.96085	-12.63627	406.49817	19.62356	106.63806	124.70654	74.27396	0.00000	0.00000	0.00000	162.92711	87.11407	135.06041	-51.86857	49.68240	161.58398	-75.55429	72.98831	114.18931	-40.09310	42.70299	46.16458
1495	5.97600	89.35118	1054.92505	211.14256	-149.36234	981.83936	341.44641	-241.26801	647.40100	384.63339	-267.72260	614.39435	378.63580	-288.02194	680.70685	361.92731	-307.67810	641.20374	357.37662	-266.36768	566.81506	366.27914	-296.94565	569.67755	212.76953	-263.00360	472.16162	364.87680	-283.74194	429.17505	365.71576	-321.84616	492.75809	363.40405	-333.06653	445.99628	359.80969	-420.56622	130.47906	340.79547	-434.85529	140.91156	243.57881	-366.98639	88.64728	283.98929	-579.84973	139.65785	362.70035	-597.45081	178.28784	295.85660	-582.04919	147.94106	248.09828	86.00340	1067.40674	129.05441	-154.67947	967.31146	42.03250	-26.44033	604.96167	8.47887	-26.44613	560.16718	17.08325	-88.12319	597.96124	16.01960	-80.12224	554.93927	23.16150	-44.70685	525.43494	33.53701	-82.70962	528.75629	151.47002	21.83076	470.35760	33.72670	33.70699	430.79932	22.49130	-36.28709	447.71777	28.90808	-14.99270	406.39481	19.83562	106.44218	125.00610	74.21648	0.00000	0.00000	0.00000	162.78775	87.24338	135.03554	-51.68530	49.44327	161.96075	-75.71263	72.66148	114.23286	-40.13395	42.57692	46.14817
1496	5.98000	85.44803	1054.27026	211.40294	-153.26740	980.83533	341.63071	-244.60541	646.19403	384.41397	-271.33185	613.18799	378.13470	-291.68414	679.42236	361.46603	-311.27435	639.91699	356.84470	-269.84845	566.04852	365.71945	-299.43747	568.31750	212.33073	-267.07986	471.47446	364.70416	-288.04785	428.60394	365.75024	-325.81235	492.35693	363.01898	-337.40683	445.65561	359.68558	-427.08331	130.74136	341.81308	-441.10675	140.80412	244.51663	-374.20227	87.99088	284.72058	-586.35486	141.16162	363.27429	-604.21857	180.57930	294.45932	-588.20612	148.95650	248.65549	82.14370	1066.86731	129.34044	-158.43602	966.55908	42.16992	-29.03082	604.52740	8.47075	-28.78424	559.83130	17.05723	-90.67439	597.30524	15.93481	-82.55141	554.27283	23.13117	-46.26150	524.74329	32.55429	-85.15402	528.05750	151.39944	19.71026	470.13602	33.65089	32.00568	430.81049	22.52627	-38.36858	447.22113	28.88880	-16.79955	406.08548	19.78003	106.13237	125.21059	74.09774	0.00000	0.00000	0.00000	162.69293	87.40311	134.95518	-51.96189	49.30713	161.91002	-75.86813	72.35919	114.25457	-40.24867	42.43050	46.16499
1497	5.98400	81.60999	1053.66296	211.64737	-157.09521	979.82092	341.82593	-248.58759	645.15546	383.83145	-274.84177	611.98737	377.65210	-295.47998	678.11591	360.96625	-314.92496	638.58496	356.27139	-273.30658	565.33392	365.13684	-303.23068	567.27356	211.44095	-271.07303	470.80997	364.53030	-292.26080	428.03922	365.79416	-329.72116	491.96442	362.60950	-341.57849	445.27676	359.52173	-433.26102	130.77834	342.77731	-446.94791	140.58258	245.42238	-380.37521	87.62399	286.04938	-592.42822	142.41550	363.89719	-610.44531	181.62213	294.82022	-594.00012	149.69991	249.19106	78.24960	1066.31433	129.65096	-162.18434	965.78864	42.35377	-31.59835	604.11877	8.47064	-31.26175	559.39343	17.04630	-93.23736	596.64020	15.90096	-84.89307	553.64044	23.05891	-48.55954	524.22638	32.56985	-87.56284	527.35803	151.26784	17.53961	469.95029	33.56620	30.12904	430.72052	22.50764	-40.40218	446.76718	28.86652	-18.63498	405.72495	19.76293	105.82241	125.32797	73.99503	0.00000	0.00000	0.00000	162.59888	87.62681	134.89301	-52.07026	49.16611	161.87859	-76.02111	72.09884	114.25169	-40.30800	42.33785	46.14733
1498	5.98800	77.69039	1053.03186	211.89070	-160.98045	978.85480	342.02460	-252.30168	644.05914	383.45245	-278.47174	610.78076	377.19473	-299.27219	676.86719	360.44678	-318.62308	637.26141	355.73807	-276.77762	564.60571	364.60373	-306.40759	566.04846	210.79053	-274.98062	470.10593	364.36337	-296.27798	427.49561	365.88852	-333.55667	491.49677	362.23245	-345.60541	444.84436	359.33353	-438.85056	130.90848	343.70959	-452.39731	140.25406	246.29732	-386.10532	87.20777	287.34164	-598.05078	143.38295	364.48636	-614.88373	182.26076	295.73242	-599.38995	150.14191	249.78462	74.32794	1065.78809	129.97412	-166.62556	964.74402	42.92164	-34.27267	603.64209	8.47880	-33.64112	558.95831	17.07274	-95.98209	595.86938	15.90324	-87.33970	553.01636	23.03117	-50.88888	523.69580	32.53127	-90.01114	526.64850	151.22014	15.41403	469.76868	33.51474	28.21497	430.63361	22.44804	-42.37022	446.29160	28.78981	-20.82831	405.46448	20.11185	105.54420	125.51702	73.86161	0.00000	0.00000	0.00000	162.49358	87.86847	134.83350	-52.16760	49.06759	161.86093	-76.16405	71.84486	114.24098	-40.35571	42.22553	46.13227
